<svg width="274" height="274" viewBox="0 0 274 274" fill="none" xmlns="http://www.w3.org/2000/svg">
<circle cx="137" cy="137" r="128" stroke="black" stroke-width="18"/>
<circle cx="95" cy="87" r="21" fill="black"/>
<circle cx="179" cy="87" r="21" fill="black"/>
<path d="M84.237 172.045C80.672 172.466 78.1236 175.698 78.5449 179.263C78.9663 182.828 82.1979 185.376 85.763 184.955L85 178.5L84.237 172.045ZM85.0993 178.488L85.8623 184.943L88.6292 184.616L90.3003 182.387L85.0993 178.488ZM187.409 164.589L193.801 165.773L193.807 165.742L193.812 165.712L187.409 164.589ZM188.908 156.04L186.34 150.069L183.112 151.457L182.506 154.917L188.908 156.04ZM191.568 161.971C194.866 160.552 196.39 156.729 194.971 153.432C193.552 150.134 189.729 148.61 186.432 150.029L189 156L191.568 161.971ZM85 178.5L85.763 184.955L85.8623 184.943L85.0993 178.488L84.3364 172.033L84.237 172.045L85 178.5ZM85.0993 178.488L90.3003 182.387C95.8014 175.048 102.914 171.032 112.036 170.111L111.384 163.644L110.731 157.177C97.9904 158.463 87.5796 164.342 79.8983 174.59L85.0993 178.488ZM111.384 163.644L112.036 170.111C122.029 169.103 136.436 170.277 155.57 173.966L156.8 167.584L158.031 161.201C138.473 157.431 122.602 155.979 110.731 157.177L111.384 163.644ZM156.8 167.584L155.57 173.966C165.401 175.862 173.536 176.695 179.595 176.102C182.618 175.806 185.667 175.11 188.232 173.579C191.019 171.915 193.15 169.286 193.801 165.773L187.409 164.589L181.018 163.406C181.138 162.756 181.597 162.399 181.568 162.416C181.317 162.566 180.408 162.96 178.329 163.164C174.185 163.569 167.545 163.036 158.031 161.201L156.8 167.584ZM187.409 164.589L193.812 165.712L195.311 157.162L188.908 156.04L182.506 154.917L181.007 163.467L187.409 164.589ZM188.908 156.04L191.477 162.011L191.568 161.971L189 156L186.432 150.029L186.34 150.069L188.908 156.04Z" fill="black"/>
</svg>
